<?xml version="1.0" encoding="utf-8"?>
<!-- Generator: Adobe Illustrator 22.0.1, SVG Export Plug-In . SVG Version: 6.00 Build 0)  -->
<svg version="1.1" id="Layer_1" xmlns="http://www.w3.org/2000/svg" xmlns:xlink="http://www.w3.org/1999/xlink" x="0px" y="0px"
	 viewBox="0 0 501.2 310.5" style="enable-background:new 0 0 501.2 310.5;" xml:space="preserve">
<style type="text/css">
	.st0{fill:none;}
	.st1{fill:#C68A4F;}
	.st2{fill:#B27742;}
	.st3{fill:#F3C144;}
	.st4{fill:#CE9E6A;}
	.st5{fill:#FFE2A1;}
</style>
<g>
	<polygon class="st0" points="248.3,117.8 251.2,119.3 205.3,94.2 	"/>
	<polygon class="st0" points="169.6,159.4 215.5,184.5 212.7,182.9 	"/>
	<path class="st1" d="M210.6,253.2h-21.9c-1.2,0.1-2.3,0.2-3.5,0H43.9C19.7,253.2,0,272.9,0,297.1v9.6h254.5v-9.6
		C254.5,272.9,234.8,253.2,210.6,253.2z"/>
	<path class="st1" d="M492.4,266L319,171.1l-16.8-9.2c-0.2,0.6-0.2,1.2-0.5,1.7l-21.6,39.5c-0.3,0.5-0.8,0.9-1.2,1.4l16.8,9.2
		l173.4,94.9c9.3,5.1,22-0.4,28.4-12.1C504,284.7,501.7,271,492.4,266z M437.7,257.6c-1.8,3.3-5.1,5.1-8.6,5.1
		c-1.6,0-3.2-0.4-4.7-1.2l-109.5-59.9c-4.7-2.6-6.5-8.6-3.9-13.3c2.6-4.8,8.6-6.5,13.3-3.9l109.5,59.9
		C438.6,246.9,440.3,252.8,437.7,257.6z"/>
	<path class="st1" d="M276.2,149.7c0.3-0.5,0.8-0.9,1.2-1.4L245,130.6l-23.3,42.6l32.4,17.7c0.2-0.6,0.2-1.2,0.5-1.7L276.2,149.7z"
		/>
	<path class="st2" d="M301.7,163.6c0.3-0.5,0.3-1.1,0.5-1.7c2.1-5.7,0-12.3-5.5-15.3l-3.5-1.9c-5.5-3-12.2-1.3-15.9,3.6
		c-0.4,0.5-0.9,0.8-1.2,1.4l-21.6,39.5c-0.3,0.5-0.3,1.1-0.5,1.7c-2.1,5.7,0,12.3,5.5,15.3l3.5,1.9c5.5,3,12.2,1.3,15.9-3.6
		c0.4-0.5,0.9-0.8,1.2-1.4L301.7,163.6z"/>
	<path class="st1" d="M241.3,66.5l31.7,17.3c6.4,3.5,14.4,1.1,17.9-5.2l3.8-6.9c3.5-6.4,1.1-14.4-5.2-17.9L193.9,1.6
		c-6.4-3.5-14.4-1.1-17.9,5.2l-3.8,6.9c-3.5,6.4-1.1,14.4,5.2,17.9l1.9,1.1v0L241.3,66.5z"/>
	<path class="st1" d="M126.5,135.8l-2.8-1.5c-3.2-1.8-7.3-0.6-9,2.6l-4.6,8.3c-1.8,3.2-0.6,7.3,2.6,9l91.8,50.2
		c3.2,1.8,7.3,0.6,9-2.6l4.6-8.3c1.8-3.2,0.6-7.3-2.6-9l-45.9-25.1L126.5,135.8z"/>
	<path class="st1" d="M188.7,253.2c4.2-0.5,8.1-2.6,10.2-6.5l3.7-6.9c3.5-6.4,1.1-14.4-5.2-17.9l-95.5-52.2
		c-6.4-3.5-14.4-1.1-17.9,5.2l-3.7,6.9c-3.5,6.4-1.1,14.4,5.2,17.9l95.5,52.2c1.3,0.7,2.8,1.1,4.2,1.3
		C186.3,253.4,187.5,253.4,188.7,253.2z"/>
	
		<rect x="144.8" y="135.4" transform="matrix(0.48 -0.8773 0.8773 0.48 -84.4041 232.779)" class="st2" width="18.7" height="104.4"/>
	<path class="st3" d="M251.2,119.3l-2.8-1.5l-43.1-23.6l-45.9-25.1l-35.7,65.2l2.8,1.5l43.1,23.6l43.1,23.6l2.8,1.5l6.2-11.3
		l23.3-42.6L251.2,119.3z M233.9,131.5c-1.8,3.3-5.1,5.1-8.6,5.1c-1.6,0-3.2-0.4-4.7-1.2l-57.1-31.3c-4.7-2.6-6.5-8.6-3.9-13.3
		c2.6-4.8,8.6-6.5,13.3-3.9l57.1,31.3C234.8,120.8,236.5,126.7,233.9,131.5z"/>
	<path class="st1" d="M251.2,119.3c3.2,1.8,7.3,0.6,9-2.6l4.6-8.3c1.8-3.2,0.6-7.3-2.6-9l-91.8-50.2c-3.2-1.8-7.3-0.6-9,2.6
		l-4.6,8.3c-1.8,3.2-0.6,7.3,2.6,9l45.9,25.1L251.2,119.3z"/>
	<polygon class="st2" points="262,99.2 271,82.8 241.3,66.5 179.4,32.7 179.4,32.7 170.4,49.1 	"/>
	<path class="st4" d="M433.8,244.3l-109.5-59.9c-4.7-2.6-10.7-0.9-13.3,3.9c-2.6,4.7-0.9,10.7,3.9,13.3l109.5,59.9
		c1.5,0.8,3.1,1.2,4.7,1.2c3.5,0,6.8-1.8,8.6-5.1C440.3,252.8,438.6,246.9,433.8,244.3z"/>
	<path class="st5" d="M230,118.2l-57.1-31.3c-4.7-2.6-10.7-0.9-13.3,3.9c-2.6,4.7-0.9,10.7,3.9,13.3l57.1,31.3
		c1.5,0.8,3.1,1.2,4.7,1.2c3.5,0,6.8-1.8,8.6-5.1C236.5,126.7,234.8,120.8,230,118.2z"/>
</g>
</svg>
